<svg width="37" height="43" viewBox="0 0 37 43" fill="none" xmlns="http://www.w3.org/2000/svg">
<path d="M28.6227 38.5662C28.6227 36.2731 30.4946 34.4202 32.8011 34.4202C33.9147 34.4202 34.9828 34.8567 35.7702 35.6337C36.5577 36.4107 37 37.4645 37 38.5634C37 39.6622 36.5577 40.716 35.7702 41.493C34.9828 42.27 33.9147 42.7065 32.8011 42.7065C30.4976 42.7065 28.6227 40.8507 28.6227 38.5634" fill="white" fill-opacity="0.9"/>
<path d="M13.6782 35.7252L7.29821 35.718V27.0705C7.29821 25.2185 7.93049 24.26 9.32532 24.0366H13.6782C16.7824 24.0366 18.7904 26.2562 18.7936 29.8485C18.7904 33.5381 16.8332 35.7216 13.6782 35.7216V35.7252ZM7.29821 12.3912V10.114C7.29821 8.12151 8.04172 7.17388 9.67167 7.05137H12.938C15.7371 7.05137 17.4147 8.95023 17.4147 12.1318C17.4147 14.5531 16.2645 17.3816 13.0396 17.3816H7.29821V12.3912ZM21.8248 21.0244L20.6713 20.2893L21.6786 19.3129C22.851 18.1707 24.8115 15.6016 24.8115 11.1698C24.8115 4.38143 20.1726 0 12.9888 0H3.85719C2.82969 0.0424843 1.85606 0.531651 1.13796 1.36613C0.419854 2.20061 0.0123735 3.31641 0 4.48232V43H13.1507C21.1352 43 26.2888 38.0709 26.2888 30.4358C26.2888 26.3246 24.624 22.8116 21.8248 21.0244Z" fill="white"/>
</svg>
