<svg width="546" height="168" viewBox="0 0 546 168" fill="none" xmlns="http://www.w3.org/2000/svg">
<path d="M78.1455 0H100.146V28V78.5H79.6455V38H56.1455V146H79.6455V103.5H100.146V151H8.64551C16 98.5 16.5 93.5 18.1455 83C19.6957 73.1082 20.3652 64.341 22.6455 57.5C24.1455 53 29.6455 43 33.1455 39.5C41.6455 29.5 48.4788 28.6667 52.1455 28H90.6455H92.6455V17H78.1455V0Z" fill="#FFF6ED"/>
<path d="M100.145 168V151H0L0.000347137 168H100.145Z" fill="#F1F1F1"/>
<path d="M200.79 168V151H100.134V168H200.79Z" fill="#E6E6E6" fill-opacity="0.9"/>
<path d="M123.645 0H100.141L100.141 28H109.645V17H123.645V0Z" fill="white"/>
<path d="M100.123 78.5V28H109.646L150.319 28.0954L151.819 28.5954L154.146 29.5L157.146 31L160.146 33C171.646 42 173.5 50.5 173.5 50.5C173.5 50.5 178.5 59 181 72C181.518 74.6951 183.646 90 186.146 109C186.646 111 189.146 129.5 191.646 151H100.146L100.146 103.5H117.646V146H140.646L141.146 38H117.646V78.5H100.123Z" fill="white"/>
<path d="M227.49 80.5L228.5 76L230.411 72.3847C233.391 67.9801 237.437 65.8634 240.841 65.5326H270.642C279.583 67.0009 282 71.9094 282 80.5C282 110.845 285 125.243 265.748 125.243H249.041H234L231.99 124.765L230.49 124.265L229.49 123.765L228.99 123.265L228.424 122.265L227.49 120.765L226.934 119.265L226.437 117.765V116.433V111.539L227.49 80.5ZM292 107.134V99.7925V88.0461C292 84.1307 292 79.408 292 67.4415C289.5 58 282.437 55.5 280 54.7648H240.841C231.99 56.5 228 59.5 224.947 62.5C222.37 65.0326 220.477 67.4415 217.497 76L217 125.243V126.57L217.497 128.038L218.49 129.996L219.483 132.095L220.477 133.422L223.457 136.01L224.947 136.5H265.748C290.51 135.032 292 114.765 292 113.265C292 111.265 292 107.134 292 107.134Z" fill="white"/>
<path d="M316.5 36H306V49.5H296.5V56L306 56.5V128.136C306.5 132.5 310 137.5 317 138H323.5V128H321H319.5C319.5 128 317 128 316.5 125V56.5H326.5V49.5H316.5V36Z" fill="white"/>
<path d="M349 87.5C359.832 87.5 401.5 87.5 407.5 87.5C407.5 67 407.5 67.5 399 67.5C398 67.5 367 67.5 357 67.5C347.659 67.5 349 70.4996 349 87.5ZM338.5 69.9998C338.5 67.3912 340.5 60.5 347 59C350.196 57.2 357.194 57.9998 366.5 57.9998C385.023 57.9998 402.218 57.7469 405 57.9998C410.5 58.4998 415 60.5 417 69.9998C417 83.4998 417 92.9998 417 97.7927H350.373H349C349 100 349 100.5 349 106C349 113 349 111.5 349 116.5C349 117.5 347.5 125.5 355.5 129H361H414V138.5C406.5 138.5 361.19 138.5 353 138.5C346 137.5 341.5 135 338.5 129V106.834V69.9998Z" fill="white"/>
<path d="M532.37 100.5C520.917 100.5 484.344 100.5 478 100.5C478 117.361 476.5 125 490.5 131C491.472 131.417 513.427 131 524 131C535.5 131 532.37 103.5 532.37 100.5ZM542.5 110C542.5 112.146 542.5 123.5 542.5 128.5C540 133.5 537.5 138 529 141C509.415 141 495.942 141.208 493 141C487.185 140.589 473 138.5 467.5 121C467.5 109.896 467.5 93.942 467.5 90H532.37V81.5C531.5 74.5 523.5 70.6865 519 70C513.308 69.1317 489 69.5 482.5 69.5C481.678 69.5 479.5 71.5 479.5 76H468V70L468.5 67.5L469.5 65.5L470.5 63.5L472.5 61.5L475 60L478 59C485.93 59 516.841 59 525.5 59C533.5 60.5 542.5 72.4996 542.5 80V91.5V110Z" fill="white"/>
<path d="M440.5 36H429.5V139H440.5V36Z" fill="white"/>
<path d="M458.5 41H448.5V54.5H458.5V41Z" fill="white"/>
<path d="M458.5 61.5H448.5V139.5H458.5V61.5Z" fill="white"/>
<path d="M227.49 80.5L228.5 76L230.411 72.3847C233.391 67.9801 237.437 65.8634 240.841 65.5326H270.642C279.583 67.0009 282 71.9094 282 80.5C282 110.845 285 125.243 265.748 125.243H249.041H234L231.99 124.765L230.49 124.265L229.49 123.765L228.99 123.265L228.424 122.265L227.49 120.765L226.934 119.265L226.437 117.765V116.433V111.539L227.49 80.5ZM292 107.134V99.7925V88.0461C292 84.1307 292 79.408 292 67.4415C289.5 58 282.437 55.5 280 54.7648H240.841C231.99 56.5 228 59.5 224.947 62.5C222.37 65.0326 220.477 67.4415 217.497 76L217 125.243V126.57L217.497 128.038L218.49 129.996L219.483 132.095L220.477 133.422L223.457 136.01L224.947 136.5H265.748C290.51 135.032 292 114.765 292 113.265C292 111.265 292 107.134 292 107.134Z" fill="white"/>
<path d="M316.5 36H306V49.5H296.5V56L306 56.5V128.136C306.5 132.5 310 137.5 317 138H323.5V128H321H319.5C319.5 128 317 128 316.5 125V56.5H326.5V49.5H316.5V36Z" fill="white"/>
<path d="M349 87.5C359.832 87.5 401.5 87.5 407.5 87.5C407.5 67 407.5 67.5 399 67.5C398 67.5 367 67.5 357 67.5C347.659 67.5 349 70.4996 349 87.5ZM338.5 69.9998C338.5 67.3912 340.5 60.5 347 59C350.196 57.2 357.194 57.9998 366.5 57.9998C385.023 57.9998 402.218 57.7469 405 57.9998C410.5 58.4998 415 60.5 417 69.9998C417 83.4998 417 92.9998 417 97.7927H350.373H349C349 100 349 100.5 349 106C349 113 349 111.5 349 116.5C349 117.5 347.5 125.5 355.5 129H361H414V138.5C406.5 138.5 361.19 138.5 353 138.5C346 137.5 341.5 135 338.5 129V106.834V69.9998Z" fill="white"/>
<path d="M532.37 100.5C520.917 100.5 484.344 100.5 478 100.5C478 117.361 476.5 125 490.5 131C491.472 131.417 513.427 131 524 131C535.5 131 532.37 103.5 532.37 100.5ZM542.5 110C542.5 112.146 542.5 123.5 542.5 128.5C540 133.5 537.5 138 529 141C509.415 141 495.942 141.208 493 141C487.185 140.589 473 138.5 467.5 121C467.5 109.896 467.5 93.942 467.5 90H532.37V81.5C531.5 74.5 523.5 70.6865 519 70C513.308 69.1317 489 69.5 482.5 69.5C481.678 69.5 479.5 71.5 479.5 76H468V70L468.5 67.5L469.5 65.5L470.5 63.5L472.5 61.5L475 60L478 59C485.93 59 516.841 59 525.5 59C533.5 60.5 542.5 72.4996 542.5 80V91.5V110Z" fill="white"/>
<path d="M440.5 36H429.5V139H440.5V36Z" fill="white"/>
<path d="M458.5 41H448.5V54.5H458.5V41Z" fill="white"/>
<path d="M458.5 61.5H448.5V139.5H458.5V61.5Z" fill="white"/>
</svg>
